<svg xmlns="http://www.w3.org/2000/svg" viewBox="0 0 171 178"><defs><style>.cls-1{fill:#6c5fa6;}</style></defs><g id="Layer_2" data-name="Layer 2"><g id="Design1"><g id="WhiteLogo"><path class="cls-1" d="M171,110.76a4.51,4.51,0,0,0-3.26-3.89c-11.05-4.23-22-8.82-33.19-12.58-9.38-3.13-18.89-5.93-28.46-8.48,0-.2,0-.39,0-.59-.16-9.75-.38-19.5-.6-29.25q-.21-9.81-.48-19.62c-.06-2.29.13-4.6-.75-6.83-1-2.41-3.15-3.55-5.32-2.29A7,7,0,0,0,96.55,30C94.63,33.57,92.82,37.2,91,40.82c-3.12,6.23-6.47,12.36-9.26,18.74-2.88,6.6-5.64,13.25-8.37,19.92-4.75-.56-9.51-1-14.28-1.38q.78-7.38,1.63-14.76c.82-7.21,1.83-11.4,2.8-18.59.91-6.78,1.87-12.56,2.82-19.33A1.86,1.86,0,0,0,65,23.17a1.76,1.76,0,0,0-2.15,1.38,29.65,29.65,0,0,0-.78,3.19c-2,11.11-3.9,18.23-5.86,29.33-1,5.75-2.15,11.47-3.06,17.23-.18,1.11-.33,2.22-.5,3.33a198.21,198.21,0,0,0-51.2,3.72L0,83.16a20.5,20.5,0,0,0,2,.91c.31.1.7-.1,1.06-.14,7.19-.77,14.36-1.78,21.57-2.25a161.91,161.91,0,0,1,27.26.67q-.84,5.91-1.6,11.82c-.69,5.36-1.35,10.73-1.76,16.12-.36,4.74-.44,9.51-.49,14.27a33.16,33.16,0,0,0,1,10A3.14,3.14,0,0,0,53,136.68a7.5,7.5,0,0,0,4.87-4.42c2.95-6.23,6-12.42,8.84-18.68q6.19-13.48,12.3-27,4.09.8,8.18,1.67,5,1.05,9.89,2.38-.18,5-.35,9.92c-.44,13.19-1,26.38-1.3,39.57-.27,10.58-.36,21.17-.48,31.75,0,3.37,2.22,6,5.15,6.12a5.59,5.59,0,0,0,6.14-5.79c.22-8.95.49-17.91.52-26.87,0-10.55-.19-21.1-.31-31.64q-.12-10.22-.25-20.41c7.92,2.47,15.72,5.3,23.45,8.31,11.44,4.44,22.85,9,34.32,13.29a7.85,7.85,0,0,0,4.7.09C170.44,114.42,171.13,112.6,171,110.76ZM68,92.68c-3.76,9.14-7.45,18.31-11.18,27.45-.32.78-.75,1.52-1.12,2.28l-.27-.07c0-.4,0-.8,0-1.19.64-8.63,1.17-17.28,2-25.89.38-4.05.78-8.08,1.2-12.12,4.18.55,8.35,1.21,12.51,2Zm13.72-12.1.09-.18q7.27-16,14.53-32.06c.41-.91.88-1.8,1.31-2.69a1.51,1.51,0,0,1,.36,1c-.1,8.47-.13,16.94-.34,25.4-.09,3.83-.22,7.66-.34,11.48C92.13,82.35,86.93,81.37,81.69,80.58Z"/><path class="cls-1" d="M61.78,15.07a7.7,7.7,0,0,0,6.7,2.18A8.91,8.91,0,0,0,72,15.8a.4.4,0,0,0,.16-.32c0-.09-.19-.17-.3-.21a3.07,3.07,0,0,0-.52-.06A9.22,9.22,0,0,1,66,12.75c-.24-.19-.19-.44.07-.61l.49-.28a.79.79,0,0,1,.72-.14,1.39,1.39,0,0,0,.67,0,2,2,0,0,1,1,.13,9.31,9.31,0,0,1,4.61,3.71c.26.39.43.4.67,0a14.45,14.45,0,0,0,2.06-5.5,7.84,7.84,0,0,0-.4-3.81,8.3,8.3,0,0,0-4.26-4.44.41.41,0,0,0-.35,0,.58.58,0,0,0,0,.41A9.53,9.53,0,0,1,72,8.56a.35.35,0,0,1-.55.28c-.44-.26-1-.44-1.07-1a2.3,2.3,0,0,0-.26-.49,2.65,2.65,0,0,1-.3-.67,8.87,8.87,0,0,1-.18-1.54A9.18,9.18,0,0,1,70.75.53c.18-.34.08-.51-.31-.52s-.62,0-.93,0a14.28,14.28,0,0,0-4.15.66c-4.46,1.45-5.66,5-5.58,8.49a.34.34,0,0,0,.16.26c.09,0,.21,0,.31-.09s.08-.11.12-.17a9.57,9.57,0,0,1,5-3.7c.21-.08.46,0,.48.22,0,.47.21,1-.2,1.4a4.39,4.39,0,0,0-.42.61,4.18,4.18,0,0,1-.6.77,9.31,9.31,0,0,1-5.57,2.15c-.4,0-.5.18-.31.53A15.18,15.18,0,0,0,61.78,15.07Zm6-4.83a1.31,1.31,0,1,1,1.33-1.32A1.33,1.33,0,0,1,67.82,10.24ZM70.7,9l.41.23a.91.91,0,0,0,1.48-.7,11.23,11.23,0,0,0-.2-5.09.29.29,0,0,1,0-.09A8.25,8.25,0,0,1,74,5.83,6.4,6.4,0,0,1,74.45,9a.42.42,0,0,1-.09.25,3.12,3.12,0,0,1-3.9.87C70.54,9.75,70.62,9.4,70.7,9Zm-.64,1.67a.28.28,0,0,1,.23,0,3.63,3.63,0,0,0,3.88-.48l.1,0a10.6,10.6,0,0,1-1.62,3.47,10.07,10.07,0,0,0-3.35-2.17C69.56,11.17,69.8,10.92,70.06,10.69Zm-.63-8.27a10.68,10.68,0,0,0-.19,4c-.36-.1-.68-.18-1-.28a.34.34,0,0,1-.19-.23,3.58,3.58,0,0,0-2.33-3.06l-.09-.08A10.48,10.48,0,0,1,69.43,2.42ZM65.12,5a11.22,11.22,0,0,0-4.29,2.69l-.14.1A8.61,8.61,0,0,1,62.14,5,6.66,6.66,0,0,1,64.45,3.2a.86.86,0,0,1,.5-.05,3.11,3.11,0,0,1,2.57,2.91l-1.07.32V5.91A.91.91,0,0,0,65.12,5Zm.37,5.64.82.77c-.17.09-.33.17-.49.27a.89.89,0,0,0-.14,1.52,11.07,11.07,0,0,0,4.5,2.42l.21.09a7.55,7.55,0,0,1-5.81-1,1,1,0,0,1-.35-.47A3.1,3.1,0,0,1,65.49,10.62ZM64.92,9c.09.37.19.71.26,1.06a.32.32,0,0,1-.13.23,3.54,3.54,0,0,0-1.45,2.3c0,.3,0,.61,0,.92,0,.13,0,.26,0,.45a10.78,10.78,0,0,1-2.19-3.13A10.34,10.34,0,0,0,64.92,9Z"/></g></g></g></svg>